<svg width="256" height="256" viewBox="0 0 256 256" fill="none" xmlns="http://www.w3.org/2000/svg">
<g clip-path="url(#clip0)">
<rect width="256" height="256" fill="white"/>
<path d="M0 0H256L0 256V0Z" fill="#91C7F9"/>
<path d="M256 256L0 256L256 0L256 256Z" fill="#D5E9FC"/>
<path d="M70.176 197H35.872V69H69.92V76.168C81.696 69.3413 91.7653 65.928 100.128 65.928C113.952 65.928 124.619 69.9387 132.128 77.96C147.829 69.9387 162.165 65.928 175.136 65.928C192.032 65.928 203.723 70.8773 210.208 80.776C216.864 90.504 220.192 106.12 220.192 127.624V197H185.888V128.648C185.888 117.725 184.693 109.704 182.304 104.584C179.915 99.2933 175.136 96.648 167.968 96.648C162.507 96.648 155.851 97.8427 148 100.232L144.16 101.512C144.843 114.312 145.184 124.04 145.184 130.696V197H110.88V131.208C110.88 118.579 109.771 109.704 107.552 104.584C105.333 99.2933 100.469 96.648 92.96 96.648C86.304 96.648 79.7333 97.8427 73.248 100.232L70.176 101.256V197Z" fill="#083763"/>
</g>
<defs>
<clipPath id="clip0">
<rect width="256" height="256" fill="white"/>
</clipPath>
</defs>
</svg>
